<?xml version="1.0" encoding="UTF-8"?>
<svg width="64px" height="64px" viewBox="0 0 64 64" version="1.1" xmlns="http://www.w3.org/2000/svg" xmlns:xlink="http://www.w3.org/1999/xlink">
    <title>编组 5</title>
    <g id="首页" stroke="none" stroke-width="1" fill="none" fill-rule="evenodd">
        <g id="图标/切图" transform="translate(-412.000000, -127.000000)">
            <g id="编组-2" transform="translate(360.000000, 24.000000)">
                <g id="高亮" transform="translate(0.000000, 79.000000)">
                    <g id="编组-5" transform="translate(52.000000, 24.000000)">
                        <rect id="矩形" fill="#D8D8D8" opacity="0" x="0" y="0" width="64" height="64"></rect>
                        <path d="M51.7411478,35.6836915 C50.2925971,35.6822299 48.8825325,36.1499555 47.7220219,37.016856 L43.8010581,34.8529944 C44.7970092,31.6852083 44.1746891,28.2303459 42.1359829,25.6091888 L47.081514,20.5250037 C50.6379808,21.8482444 54.6265425,20.3590369 56.4455295,17.0287654 C58.2645166,13.6984939 57.3619417,9.53775818 54.3265387,7.26053378 C51.2911357,4.98330939 47.044024,5.28063982 44.3555207,7.9585816 C41.6670174,10.6365234 41.3529721,14.8824318 43.6182311,17.9267747 L38.832827,22.8446977 C36.4404561,21.591607 33.6465498,21.3464306 31.0724968,22.1636979 L27.0085844,15.3536998 C28.7795256,12.5746239 28.2792917,8.92219275 25.8263417,6.72161741 C23.3733918,4.52104207 19.6882836,4.41874497 17.1170311,6.47985052 C14.5457786,8.54095606 13.8436913,12.1600113 15.457732,15.0330528 C17.0717728,17.9060944 20.5278146,19.1891619 23.6256718,18.0654287 L27.3503113,24.305473 C25.9003517,25.6152271 24.8596275,27.3159643 24.3532986,29.20315 L19.3709567,29.3068338 C17.6196854,25.9546858 13.6742674,24.3949168 10.1042168,25.6433501 C6.53416622,26.8917835 4.42057949,30.5703638 5.13996238,34.2833593 C5.85934527,37.9963548 9.19385147,40.6193817 12.9718327,40.4441537 C16.749814,40.2689256 19.8272074,37.3485058 20.1998133,33.5848623 L24.1526797,33.5026515 C24.7433004,36.9634617 27.078852,39.8740859 30.3295321,41.2004035 C29.8111133,43.8642784 29.4884053,45.5520536 29.2865594,46.6342912 C26.0423436,47.2573745 23.7272195,50.1390318 23.8178085,53.4412981 C23.9083974,56.7435644 26.3780221,59.4939647 29.6515185,59.9382518 C32.9250148,60.382539 36.03838,58.3898761 37.0058624,55.2312139 C37.9733448,52.0725516 36.5100333,48.6780757 33.5492501,47.2128342 C33.8155149,45.8017535 34.208777,43.7618217 34.5640012,41.9310979 C37.2877056,41.8184735 39.8503895,40.6102532 41.6703263,38.5807015 L45.2636739,40.5641901 C44.4636819,43.3505366 45.5347806,46.3363202 47.9235247,47.9787622 C50.3122688,49.6212042 53.4836131,49.5524206 55.7988983,47.8079526 C58.1141834,46.0634846 59.0548181,43.0340684 58.1347686,40.285028 C57.2147191,37.5359876 54.6400638,35.6830695 51.7411478,35.6836915 Z M18.8856677,11.7296764 C18.8856677,10.7402745 19.4817018,9.84830705 20.3958137,9.46973668 C21.3099256,9.0911663 22.3620754,9.3005548 23.0616004,10.0002553 C23.7611255,10.6999559 23.97025,11.7521581 23.5914504,12.666175 C23.2126507,13.580192 22.3205337,14.1760023 21.3311319,14.1757542 C19.9810008,14.1740633 18.8870198,13.0798079 18.8856677,11.7296764 L18.8856677,11.7296764 Z M49.7294376,10.0523309 C51.0749246,10.0520828 52.2880643,10.8623937 52.8031319,12.1053904 C53.3181995,13.3483872 53.0337523,14.7792616 52.082437,15.7307524 C51.1311217,16.6822431 49.7002998,16.9669542 48.4572081,16.4521159 C47.2141164,15.9372776 46.4035817,14.7242874 46.4035817,13.3788003 C46.4056098,11.5427222 47.8933598,10.0546977 49.7294376,10.0523309 L49.7294376,10.0523309 Z M12.6186289,36.1591643 C10.7814706,36.1591643 9.29215951,34.6698532 9.29215951,32.832695 C9.29215951,30.9955367 10.7814706,29.5062256 12.6186289,29.5062256 C14.4557872,29.5062256 15.9450982,30.9955367 15.9450982,32.832695 C15.9430695,34.6690123 14.4549462,36.1571356 12.6186289,36.1591643 Z M30.5546915,55.6989509 C29.5652896,55.699199 28.6731726,55.1033886 28.294373,54.1893717 C27.9155733,53.2753548 28.1246979,52.2231525 28.8242229,51.523452 C29.523748,50.8237515 30.5758977,50.614363 31.4900096,50.9929333 C32.4041215,51.3715037 33.0001557,52.2634712 33.0001557,53.2528731 C32.9988036,54.6030046 31.9048226,55.69726 30.5546915,55.6989509 L30.5546915,55.6989509 Z M34.1412905,37.6481612 C33.9048461,37.6481413 33.6686199,37.6337997 33.4339096,37.6052153 C33.3676502,37.5855828 33.2995502,37.5684045 33.2302232,37.5549072 C33.1232979,37.5348856 33.0150099,37.5229903 32.9062881,37.5193234 C29.8743605,36.8650213 27.88434,33.9528412 28.3764571,30.8904047 C28.8685743,27.8279682 31.6707894,25.6858746 34.7550655,26.0144137 C37.8393415,26.3429528 40.1274442,29.0272704 39.9634132,32.1246549 C39.7993821,35.2220393 37.2405611,37.6496739 34.1388364,37.6506152 L34.1412905,37.6481612 Z M51.7411478,44.8704403 C50.7516906,44.869695 49.8601337,44.2729231 49.4822878,43.3584513 C49.1044419,42.4439795 49.3147349,41.3919399 50.0150887,40.6929903 C50.7154426,39.9940407 51.7679021,39.7858596 52.6816137,40.1655401 C53.5953253,40.5452206 54.1903066,41.4379734 54.189068,42.4274301 C54.1856851,43.7771804 53.0909021,44.8697683 51.7411478,44.8704403 L51.7411478,44.8704403 Z" id="形状" fill="#999999" fill-rule="nonzero"></path>
                    </g>
                </g>
            </g>
        </g>
    </g>
</svg>