<?xml version="1.0" encoding="UTF-8"?>
<svg width="64px" height="64px" viewBox="0 0 64 64" version="1.1" xmlns="http://www.w3.org/2000/svg" xmlns:xlink="http://www.w3.org/1999/xlink">
    <title>编组</title>
    <g id="首页" stroke="none" stroke-width="1" fill="none" fill-rule="evenodd">
        <g id="图标/切图" transform="translate(-584.000000, -127.000000)">
            <g id="编组-2" transform="translate(360.000000, 24.000000)">
                <g id="高亮" transform="translate(0.000000, 79.000000)">
                    <g id="中台" transform="translate(172.000000, 0.000000)">
                        <g id="编组" transform="translate(52.000000, 24.000000)">
                            <rect id="矩形" fill="#D8D8D8" opacity="0" x="0" y="0" width="64" height="64"></rect>
                            <path d="M57.0506869,52.6188657 C53.9700732,42.1718178 44.7306425,34.7326627 33.8668464,33.9523274 L33.8668464,22.6665383 L41.3334617,22.6665383 C42.3643861,22.6665383 43.2001155,21.8308089 43.2001155,20.7998845 L43.2001155,13.3332692 C43.2001155,12.3023447 42.3643861,11.4666153 41.3334617,11.4666153 L22.6669234,11.4666153 C21.6359989,11.4666153 20.8002695,12.3023447 20.8002695,13.3332692 L20.8002695,20.7998845 C20.8002695,21.8308089 21.6359989,22.6665383 22.6669234,22.6665383 L30.1335387,22.6665383 L30.1335387,33.9523274 C19.2685438,34.7316912 10.0275288,42.170924 6.9459648,52.6188657 C5.03057616,53.0323215 3.76079559,54.8562683 4.03790552,56.79608 C4.31501546,58.7358917 6.04470143,60.1313526 7.99924299,59.9919732 C9.95378454,59.8525938 11.4679528,58.2258119 11.4670004,56.2663073 C11.4670004,55.3049806 11.0936696,54.4369865 10.4963404,53.7761911 C13.0779905,44.8636854 20.8873307,38.4655197 30.1335387,37.6875017 L30.1335387,53.0519294 C29.0228797,53.6977916 28.2668849,54.8887168 28.2668849,56.2681739 C28.2668849,58.3300228 29.9383436,60.0015609 32.0001925,60.0015609 C34.0620414,60.0015609 35.7335002,58.3300228 35.7335002,56.2681739 C35.7335002,54.8905834 34.9775054,53.6996583 33.8668464,53.0519294 L33.8668464,37.6875017 C43.1137755,38.4657732 50.9229961,44.865934 53.502178,53.7799244 C52.8808847,54.4591558 52.5354178,55.3457876 52.5333847,56.2663073 C52.5333847,58.3281562 54.2048434,59.9996149 56.2666923,59.9996149 C58.3285412,59.9996149 60,58.3281562 60,56.2663073 C59.9987664,54.507568 58.7702093,52.9882006 57.0506869,52.6188657 Z M18.9336157,30.1331536 L23.4527846,30.1331536 C24.4837091,30.1331536 25.3194385,29.2974243 25.3194385,28.2664998 C25.3194385,27.2355754 24.4837091,26.399846 23.4527846,26.399846 L18.9336157,26.399846 C17.9026913,26.399846 17.0669619,25.5641166 17.0669619,24.5331921 L17.0669619,9.59996149 C17.0669619,8.56903705 17.9026913,7.73330766 18.9336157,7.73330766 L45.0667693,7.73330766 C46.0976938,7.73330766 46.9334232,8.56903705 46.9334232,9.59996149 L46.9334232,24.5331921 C46.9334232,25.5641166 46.0976938,26.399846 45.0667693,26.399846 L39.7804057,26.399846 C38.7494813,26.399846 37.9137519,27.2355754 37.9137519,28.2664998 C37.9137519,29.2974243 38.7494813,30.1331536 39.7804057,30.1331536 L45.0667693,30.1331536 C48.1595427,30.1331536 50.6667308,27.6259655 50.6667308,24.5331921 L50.6667308,9.59996149 C50.6667308,6.50718816 48.1595427,4 45.0667693,4 L18.9336157,4 C15.8408424,4 13.3336542,6.50718816 13.3336542,9.59996149 L13.3336542,24.5331921 C13.3336542,27.6259655 15.8408424,30.1331536 18.9336157,30.1331536 Z" id="形状" fill="#999999" fill-rule="nonzero"></path>
                        </g>
                    </g>
                </g>
            </g>
        </g>
    </g>
</svg>