<?xml version="1.0" encoding="UTF-8"?>
<svg width="64px" height="64px" viewBox="0 0 64 64" version="1.1" xmlns="http://www.w3.org/2000/svg" xmlns:xlink="http://www.w3.org/1999/xlink">
    <title>编组</title>
    <g id="首页" stroke="none" stroke-width="1" fill="none" fill-rule="evenodd">
        <g id="图标/切图" transform="translate(-756.000000, -127.000000)">
            <g id="编组-2" transform="translate(360.000000, 24.000000)">
                <g id="高亮" transform="translate(0.000000, 79.000000)">
                    <g id="中台备份" transform="translate(344.000000, 0.000000)">
                        <g id="编组" transform="translate(52.000000, 24.000000)">
                            <rect id="矩形" fill="#D8D8D8" opacity="0" x="0" y="0" width="64" height="64"></rect>
                            <path d="M47.6402867,5.02637399 C49.4356672,4.80195143 51.0066251,6.03627552 51.4554702,7.71944468 L53.8119071,8.61713497 C56.7294004,9.62703651 58.8614148,13.1055862 58.8614148,16.3597133 L58.8614148,47.8910832 C58.8614148,51.1452103 56.6171891,54.5115487 53.6996958,55.6336616 L51.2310477,56.5313518 C50.7822026,57.9900985 49.4356672,59 47.9769205,59 C46.7425964,59 45.6204836,58.3267323 44.9472159,57.2046195 C44.2739483,56.0825067 44.2739483,54.7359713 44.9472159,53.6138586 C45.6204836,52.4917458 46.7425964,51.8184781 47.9769205,51.818478 C48.986822,51.818478 49.8845123,52.2673231 50.5577799,52.9405908 L52.577583,52.2673231 C54.0363297,51.7062667 55.382865,49.6864637 55.382865,47.8910832 L55.382865,16.3597133 C55.382865,14.5643328 54.1485409,12.5445298 52.577583,11.9834734 L50.3333574,11.1979944 C49.6600897,11.7590508 48.8746107,12.0956846 47.9769205,12.0956846 C46.0693287,12.0956846 44.4983708,10.5247267 44.4983708,8.50492366 C44.4983708,6.82175445 45.8449062,5.25079654 47.6402867,5.02637399 Z M16.5577619,5.02637399 C18.1287198,5.02637399 19.5874665,6.14848678 19.9241004,7.71944468 C20.2607342,9.29040259 19.5874665,10.8613606 18.2409311,11.6468395 C16.8943958,12.4323185 15.0990153,12.207896 13.9769024,10.9735719 L11.2838317,11.9834734 C9.82508508,12.5445298 8.47854973,14.4521216 8.47854968,16.0230795 L8.47854968,48.3399284 C8.47854968,49.9108863 9.82508503,51.818478 11.2838317,52.2673231 L13.7524799,53.1650134 C14.4257476,52.3795344 15.4356491,51.818478 16.4455506,51.818478 C17.3432409,51.818478 18.2409311,52.1551119 18.9141988,52.8283796 C19.5874665,53.5016472 19.9241004,54.3993375 19.9241004,55.2970277 C19.9241004,56.9801969 18.6897763,58.4389436 17.1188183,58.7755774 C15.5478604,59.1122113 13.9769024,58.214521 13.3036348,56.6435631 L10.1617189,55.5214503 C7.24422563,54.5115488 5,51.3696329 5,48.227717 L5,16.0230795 C5,12.8811636 7.24422563,9.73924776 10.1617189,8.61713497 L13.1914235,7.49502213 C13.6402686,6.03627552 14.986804,5.02637399 16.5577619,5.02637399 Z M34.6237781,16.2475021 L48.7623995,47.6666606 L42.4785677,47.6666606 L39.5610744,41.1584064 L25.1980306,41.1584064 L22.5049598,47.6666606 L16.2211281,47.6666606 L29.4620592,16.2475021 L34.6237781,16.2475021 Z M32.1551299,24.5511368 L27.5544674,35.4356311 L36.980215,35.4356311 L32.1551299,24.5511368 L32.1551299,24.5511368 Z" id="形状" fill="#999999" fill-rule="nonzero"></path>
                        </g>
                    </g>
                </g>
            </g>
        </g>
    </g>
</svg>