<?xml version="1.0" encoding="UTF-8"?>
<svg width="64px" height="64px" viewBox="0 0 64 64" version="1.1" xmlns="http://www.w3.org/2000/svg" xmlns:xlink="http://www.w3.org/1999/xlink">
    <title>编组</title>
    <g id="首页" stroke="none" stroke-width="1" fill="none" fill-rule="evenodd">
        <g id="图标/切图" transform="translate(-928.000000, -311.000000)">
            <g id="编组-2" transform="translate(360.000000, 24.000000)">
                <g id="正常" transform="translate(0.000000, 263.000000)">
                    <g id="中台备份-2" transform="translate(516.000000, 0.000000)">
                        <g id="编组" transform="translate(52.000000, 24.000000)">
                            <rect id="矩形" fill="#D8D8D8" opacity="0" x="0" y="0" width="64" height="64"></rect>
                            <path d="M38.9426987,4 L40.155268,11.1275416 C42.1589649,11.9260628 44.0221811,13.0055453 45.7227357,14.3438078 L45.7227357,14.3438078 L52.5027726,11.8299445 L59.6229205,24.1848429 L54.0554529,28.7911275 C54.2033272,29.8558226 54.284658,30.935305 54.284658,32.0073937 C54.284658,33.0794824 54.2107209,34.1589649 54.0554529,35.2236599 L54.0554529,35.2236599 L59.6229205,39.8299445 L52.4953789,52.1774492 L45.715342,49.6561922 C44.0221811,50.9944547 42.1515712,52.0739372 40.1478743,52.8724584 L40.1478743,52.8724584 L38.935305,60 L24.6802218,60 L23.4750462,52.8724584 C21.4713494,52.0739372 19.6081331,50.9944547 17.9075786,49.6561922 L17.9075786,49.6561922 L11.1275416,52.1774492 L4,39.8299445 L9.56746765,35.2162662 C9.41959335,34.1515712 9.33826248,33.0794824 9.33826248,32 C9.33826248,30.9279113 9.41219963,29.8484288 9.56746765,28.7837338 L9.56746765,28.7837338 L4.00739372,24.1774492 L11.1349353,11.8299445 L17.9149723,14.3438078 C19.6081331,13.0055453 21.4787431,11.9260628 23.4824399,11.1275416 L23.4824399,11.1275416 L24.6876155,4 L38.9426987,4 Z M35.4011091,8.1922366 L28.2218115,8.1922366 L27.194085,14.2624769 L26.0036969,14.6617375 C23.6746765,15.4380776 21.5526802,16.6654344 19.7042514,18.2994455 L19.7042514,18.2994455 L18.7652495,19.1275416 L12.9907579,16.9833641 L9.3974122,23.2014787 L14.1367837,27.1275416 L13.8853974,28.3548983 C13.6487985,29.5526802 13.5231054,30.7726433 13.5231054,32 C13.5231054,33.2273567 13.6414048,34.4547135 13.8853974,35.6451017 L13.8853974,35.6451017 L14.1367837,36.8724584 L9.3974122,40.7985213 L12.9907579,47.0166359 L18.7726433,44.8724584 L19.7116451,45.7079482 C21.5600739,47.3419593 23.6820702,48.5693161 26.0110906,49.3456562 L26.0110906,49.3456562 L27.2014787,49.7449168 L28.2292052,55.8151571 L35.4085028,55.8151571 L36.4362292,49.7449168 L37.6266174,49.3456562 C39.9556377,48.5693161 42.077634,47.3419593 43.9260628,45.7079482 L43.9260628,45.7079482 L44.8650647,44.8798521 L50.6395564,47.0240296 L54.232902,40.805915 L49.4935305,36.8798521 L49.7375231,35.6524954 C49.974122,34.4547135 50.0998152,33.2273567 50.0998152,32.0073937 C50.0998152,30.7874307 49.9815157,29.5600739 49.7375231,28.3622921 L49.7375231,28.3622921 L49.4935305,27.1349353 L54.2255083,23.2014787 L50.6321627,16.9833641 L44.857671,19.1275416 L43.9186691,18.2994455 C42.0702403,16.6654344 39.948244,15.4454713 37.6192237,14.6617375 L37.6192237,14.6617375 L36.4288355,14.2624769 L35.4011091,8.1922366 Z M31.3937153,22.4842884 C36.6654344,22.4842884 40.9537893,26.7726433 40.9537893,32.0443623 L40.9537893,32.0443623 L36.7689464,32.0443623 C36.7689464,29.0794824 34.3585952,26.6691312 31.3937153,26.6691312 C28.4288355,26.6691312 26.0184843,29.0794824 26.0184843,32.0443623 C26.0184843,35.0092421 28.4288355,37.4195933 31.3937153,37.4195933 L31.3937153,37.4195933 L31.3937153,41.6044362 C26.1219963,41.6044362 21.8336414,37.3160813 21.8336414,32.0443623 C21.8336414,26.7726433 26.1219963,22.4842884 31.3937153,22.4842884 Z" id="形状结合" fill="#34A1FF" fill-rule="nonzero"></path>
                        </g>
                    </g>
                </g>
            </g>
        </g>
    </g>
</svg>