<?xml version="1.0" encoding="UTF-8"?>
<svg width="64px" height="64px" viewBox="0 0 64 64" version="1.1" xmlns="http://www.w3.org/2000/svg" xmlns:xlink="http://www.w3.org/1999/xlink">
    <title>编组</title>
    <g id="首页" stroke="none" stroke-width="1" fill="none" fill-rule="evenodd">
        <g id="图标/切图" transform="translate(-1100.000000, -127.000000)">
            <g id="编组-2" transform="translate(360.000000, 24.000000)">
                <g id="高亮" transform="translate(0.000000, 79.000000)">
                    <g id="中台备份-3" transform="translate(688.000000, 0.000000)">
                        <g id="编组" transform="translate(52.000000, 24.000000)">
                            <rect id="矩形" fill="#D8D8D8" opacity="0" x="0" y="0" width="64" height="64"></rect>
                            <path d="M45.496886,7.00000024 C47.1586131,7.00000024 48.6949035,7.88385777 49.5295653,9.32075613 L59.3694626,26.2668018 C60.4103812,28.0595159 60.1427693,30.3241747 58.7126701,31.8248917 L35.2746369,56.4126449 L35.2160184,56.4712633 C34.3205836,57.3245464 33.1228092,57.7870917 31.8862832,57.7571093 C30.6497571,57.7271268 29.4758081,57.2070736 28.622781,56.311395 L28.622781,56.3127272 L5.28732988,31.8235595 C3.85723073,30.3228425 3.58961883,28.0581837 4.63053737,26.2654697 L14.4704347,9.31942389 C15.3054336,7.88303809 16.8416607,6.99946646 18.503114,7.00000024 L45.496886,7.00000024 Z M45.4955537,10.9953771 L18.5017818,10.9953771 C18.264557,10.9953771 18.0453425,11.1219358 17.9262557,11.327104 L8.08502616,28.2731498 C7.93684816,28.5288126 7.9748158,28.8515375 8.17828269,29.0658304 L31.515066,53.554998 C31.6369527,53.6829261 31.8046737,53.7571846 31.98132,53.7616249 C32.1579664,53.7656797 32.3290626,53.6995681 32.4569571,53.5776461 L32.4582893,53.5776461 L55.8177206,29.0658304 C56.0218336,28.851307 56.0598298,28.5277966 55.9109771,28.2718175 L46.0710798,11.327104 C45.951993,11.1219358 45.7327785,10.9953771 45.4955537,10.9953771 Z M42.3772644,26.0937352 C43.3142076,26.6552457 43.6266891,27.8650232 43.0788771,28.810041 C40.7954474,32.6322758 36.6695153,34.9712993 32.2171545,34.9676428 C27.7788435,34.9718279 23.6635751,32.6476974 21.3754155,28.8446792 C20.829063,27.9017995 21.1388557,26.6950341 22.0718181,26.1319142 C23.0047806,25.5687944 24.216891,25.8569657 24.7965983,26.7797129 C26.3671155,29.3781862 29.1809438,30.9674687 32.2171545,30.9709282 C35.2649034,30.9745027 38.0893505,29.3729704 39.6510331,26.7557326 C40.2261231,25.8270626 41.4403212,25.5322248 42.3772644,26.0937352 Z" id="形状结合" fill="#999999" fill-rule="nonzero"></path>
                        </g>
                    </g>
                </g>
            </g>
        </g>
    </g>
</svg>