<?xml version="1.0" encoding="UTF-8"?>
<svg width="64px" height="64px" viewBox="0 0 64 64" version="1.1" xmlns="http://www.w3.org/2000/svg" xmlns:xlink="http://www.w3.org/1999/xlink">
    <title>编组</title>
    <g id="首页" stroke="none" stroke-width="1" fill="none" fill-rule="evenodd">
        <g id="图标/切图" transform="translate(-1272.000000, -127.000000)">
            <g id="编组-2" transform="translate(360.000000, 24.000000)">
                <g id="高亮" transform="translate(0.000000, 79.000000)">
                    <g id="中台备份-4" transform="translate(860.000000, 0.000000)">
                        <g id="编组" transform="translate(52.000000, 24.000000)">
                            <rect id="矩形" fill="#D8D8D8" opacity="0" x="0" y="0" width="64" height="64"></rect>
                            <path d="M31.1712489,6.38474408 C32.0760771,5.86038167 33.1952115,5.87280132 34.08818,6.41711487 L34.08818,6.41711487 L58.6252322,21.3400451 C59.479283,21.8608075 60,22.7889602 60,23.7892583 C60,24.7895563 59.4782634,25.7174335 58.6239374,26.2377443 L58.6239374,26.2377443 L51.1038812,30.8110882 L51.1038812,48.8454979 C51.1040296,49.26243 51.0132226,49.6743757 50.8377934,50.0526044 C50.0210786,51.7928576 46.2395239,57.4687504 31.866897,57.4687504 C17.6713383,57.4687504 13.7836074,51.8394715 12.9299899,50.1141089 C12.7338714,49.7172791 12.6315376,49.2806991 12.6308839,48.8380527 L12.6308839,48.8380527 L12.6308839,30.4427088 L5.42709023,26.266878 C4.54363141,25.7535924 4,24.8090205 4,23.7872761 C4,22.7655318 4.54363141,21.8209598 5.42709023,21.3076743 L5.42709023,21.3076743 Z M16.6477742,32.7740524 L16.6477742,48.5386229 C17.2990743,49.5884074 20.4613759,53.4437674 31.8659259,53.4437674 C43.3805365,53.4437674 46.4583504,49.6049165 47.0840776,48.5557794 L47.0840776,48.5557794 L47.0840776,33.2570245 L34.0846192,41.1580848 C33.1920307,41.7012797 32.0740616,41.7136947 31.1696304,41.1904556 L31.1696304,41.1904556 L16.6477742,32.7740524 Z M57.8470387,32.5156714 C58.9504765,32.5156714 59.850476,33.3997145 59.8702125,34.5029759 L59.8702125,48.4450714 C59.8693547,48.9807921 59.6557174,49.4942303 59.2762985,49.872435 C58.8968797,50.2506397 58.3827594,50.4626303 57.8470387,50.4617736 C57.3113179,50.4626303 56.7971977,50.2506397 56.4177788,49.872435 C56.03836,49.4942303 55.8247227,48.9807921 55.8238648,48.4450714 L55.8238648,34.5029759 C55.8436014,33.3997145 56.7436008,32.5156714 57.8470387,32.5156714 Z M32.588118,10.2161498 L9.17336075,23.7888947 L32.5877943,37.3616396 L54.9061532,23.7888947 L32.588118,10.2161498 Z" id="形状结合" fill="#999999" fill-rule="nonzero"></path>
                        </g>
                    </g>
                </g>
            </g>
        </g>
    </g>
</svg>