<?xml version="1.0" encoding="UTF-8"?>
<svg width="64px" height="64px" viewBox="0 0 64 64" version="1.1" xmlns="http://www.w3.org/2000/svg" xmlns:xlink="http://www.w3.org/1999/xlink">
    <title>编组</title>
    <g id="首页" stroke="none" stroke-width="1" fill="none" fill-rule="evenodd">
        <g id="图标/切图" transform="translate(-1444.000000, -127.000000)">
            <g id="编组-2" transform="translate(360.000000, 24.000000)">
                <g id="高亮" transform="translate(0.000000, 79.000000)">
                    <g id="中台备份-5" transform="translate(1032.000000, 0.000000)">
                        <g id="编组" transform="translate(52.000000, 24.000000)">
                            <rect id="矩形" fill="#D8D8D8" opacity="0" x="0" y="0" width="64" height="64"></rect>
                            <path d="M52.4164273,11 C56.3516721,10.9908144 59.6374314,13.9987949 59.9749552,17.9195491 C60.2931822,21.8757473 57.5462467,25.3329655 53.5900485,25.9872402 C52.6954225,26.1408714 51.779287,26.1166487 50.8940293,25.9159574 C50.5452525,25.8370371 50.4128701,25.9388697 50.2601211,26.2061804 C47.48009,31.0203186 44.7026046,35.8344568 41.8945695,40.6307742 C41.6043465,41.1272084 41.9607607,41.2035828 42.2026133,41.394519 C44.129796,42.9245545 45.0259233,44.9281117 44.7076963,47.3593661 C44.3741944,49.9000905 42.9383541,51.6796159 40.5351037,52.5935639 C37.975193,53.5595634 35.084342,52.7827945 33.3533566,50.6638353 C31.5945484,48.5710948 31.3651664,45.5901536 32.7830938,43.2529648 C33.0249464,42.8507258 33.0325838,42.6750645 32.6227074,42.3721124 C28.6947664,39.4637067 24.7792656,36.5385374 20.8763121,33.5966844 C20.5479018,33.3497403 20.3060493,33.298824 19.9190853,33.4846685 C19.0387968,33.9168033 18.0485109,34.0729774 17.0779545,33.9327322 C16.6528033,33.8690868 16.477142,34.0091066 16.2887516,34.3400627 C15.1227678,36.3792614 13.9466008,38.4159142 12.7526131,40.4372922 C12.5311271,40.814073 12.5209438,41.035559 12.8162585,41.4174314 C14.1349912,43.1154907 14.3004692,44.9713906 13.3101468,46.8807527 C12.3687475,48.6550996 10.4350315,49.669972 8.44000065,49.436752 C6.34733984,49.1567122 4.89622469,48.0060034 4.24194996,45.9795338 C3.09887855,42.4433953 6.17931598,38.9632647 9.84019948,39.6404518 C10.2526217,39.7168263 10.4410121,39.5997187 10.6344941,39.2585794 C11.7393783,37.3135759 12.8544457,35.3762099 14.0000629,33.4541187 C14.2495529,33.0366049 14.2444613,32.8202105 13.860043,32.4714337 C12.067215,30.8622064 11.5133876,28.2821307 12.4878482,26.0788896 C13.4571778,23.8778994 15.7081631,22.5264923 18.1064642,22.7056833 C20.4129736,22.8584323 22.4216225,24.5055753 23.078443,26.7891723 C23.5284123,28.2607069 23.3244182,29.8546432 22.5183635,31.1654301 C22.3045149,31.526936 22.3656145,31.6847766 22.6762041,31.9164458 C26.634948,34.8594092 30.5860546,37.8125558 34.5346153,40.7707941 C34.7942885,40.9668219 34.9852247,41.0304673 35.3034517,40.8522602 C36.3744494,40.2436014 37.6097175,39.9871074 38.8344986,40.1190652 C39.2800164,40.1623441 39.4607694,39.9994118 39.6669805,39.6455434 C42.4062785,34.8874132 45.1583057,30.1369204 47.9281536,25.3966109 C48.1776436,24.9714596 48.1878268,24.7627027 47.7626755,24.4317466 C45.2483841,22.4512159 44.2704489,19.0918656 45.3288754,16.0712867 C46.3790486,13.0504957 49.2183522,11.0189251 52.4164273,11 L52.4164273,11 Z" id="路径" fill="#999999" fill-rule="nonzero"></path>
                        </g>
                    </g>
                </g>
            </g>
        </g>
    </g>
</svg>